<?xml version="1.0"?>
<svg width="1079" height="1280" xmlns="http://www.w3.org/2000/svg" xmlns:svg="http://www.w3.org/2000/svg" xmlns:xlink="http://www.w3.org/1999/xlink" preserveAspectRatio="xMidYMid meet">
 <metadata>Created by potrace 1.15, written by Peter Selinger 2001-2017</metadata>
 <defs>
  <symbol height="1280.000000pt" id="svg_3" preserveAspectRatio="xMidYMid meet" viewBox="0 0 1079.000000 1280.000000" width="1079.000000pt" xmlns="http://www.w3.org/2000/svg">
   <metadata>Created by potrace 1.15, written by Peter Selinger 2001-2017</metadata>
   <g fill="#035274" transform="translate(0.000000,1280.000000) scale(0.100000,-0.100000)">
    <path d="m4865,12419c-1022,-33 -1961,-385 -2725,-1023c-958,-799 -1553,-1913 -1730,-3237c-70,-525 -72,-1195 -5,-1716c157,-1217 643,-2235 1441,-3013c477,-466 1077,-846 1633,-1034c524,-178 1064,-255 1704,-243c366,7 661,39 927,101c36,9 67,12 71,8c3,-4 14,-52 24,-107c80,-446 233,-834 437,-1110c131,-177 348,-355 539,-444c348,-161 784,-200 1229,-110c667,135 1200,607 1514,1342c45,106 119,308 114,312c-2,1 -124,85 -273,186c-148,102 -276,189 -283,193c-8,5 -37,-19 -85,-70c-145,-156 -327,-288 -481,-348c-211,-84 -480,-70 -689,35c-239,120 -422,320 -564,616c-45,92 -53,117 -42,123c48,28 266,186 380,277c161,130 434,394 572,556c478,560 830,1250 1020,2002c82,323 137,655 169,1010c20,233 17,963 -5,1185c-75,735 -236,1323 -522,1905c-182,370 -364,652 -626,966c-123,148 -432,460 -580,586c-696,592 -1501,932 -2444,1033c-161,18 -491,26 -720,19zm478,-824c275,-36 504,-125 706,-275c555,-412 808,-1241 903,-2965c14,-258 18,-1745 5,-2131c-20,-641 -84,-1254 -173,-1677l-17,-77l-51,122c-187,446 -513,795 -948,1014c-522,262 -1208,268 -1707,13c-303,-155 -539,-391 -676,-674c-29,-60 -59,-129 -66,-153c-7,-23 -14,-41 -15,-39c-6,6 -44,332 -64,552c-25,281 -46,612 -61,985c-16,384 -17,1567 -1,1910c70,1506 252,2342 613,2824c247,328 586,519 1019,575c111,14 410,12 533,-4zm-293,-6644c469,-110 732,-425 895,-1071c54,-213 115,-599 101,-635c-8,-23 -309,-166 -448,-214c-449,-154 -920,-146 -1253,22c-276,138 -455,355 -526,639c-30,121 -37,362 -14,499c35,214 108,368 240,507c141,149 286,227 498,268c106,20 395,12 507,-15z"/>
   </g>
  </symbol>
 </defs>
 <g class="layer">
  <title>Layer 1</title>
  <use id="svg_4" transform="matrix(0.761165 0 0 0.766071 -1788.18 -2111.58)" x="2311.5654" xlink:href="#svg_3" y="2735.571623"/>
  <g fill="#ffd700" id="svg_1" transform="translate(0 1280) scale(0.1 -0.1)">
   <path d="m5185.281643,12040.111116c-1022,-33 -1961,-385 -2725,-1023c-958,-799 -1553,-1913 -1730,-3237c-70,-525 -72,-1195 -5,-1716c157,-1217 643,-2235 1441,-3013c477,-466 1077,-846 1633,-1034c524,-178 1064,-255 1704,-243c366,7 661,39 927,101c36,9 67,12 71,8c3,-4 14,-52 24,-107c80,-446 233,-834 437,-1110c131,-177 348,-355 539,-444c348,-161 784,-200 1229,-110c667,135 1200,607 1514,1342c45,106 119,308 114,312c-2,1 -124,85 -273,186c-148,102 -276,189 -283,193c-8,5 -37,-19 -85,-70c-145,-156 -327,-288 -481,-348c-211,-84 -480,-70 -689,35c-239,120 -422,320 -564,616c-45,92 -53,117 -42,123c48,28 266,186 380,277c161,130 434,394 572,556c478,560 830,1250 1020,2002c82,323 137,655 169,1010c20,233 17,963 -5,1185c-75,735 -236,1323 -522,1905c-182,370 -364,652 -626,966c-123,148 -432,460 -580,586c-696,592 -1501,932 -2444,1033c-161,18 -491,26 -720,19zm478,-824c275,-36 504,-125 706,-275c555,-412 808,-1241 903,-2965c14,-258 18,-1745 5,-2131c-20,-641 -84,-1254 -173,-1677l-17,-77l-51,122c-187,446 -513,795 -948,1014c-522,262 -1208,268 -1707,13c-303,-155 -539,-391 -676,-674c-29,-60 -59,-129 -66,-153c-7,-23 -14,-41 -15,-39c-6,6 -44,332 -64,552c-25,281 -46,612 -61,985c-16,384 -17,1567 -1,1910c70,1506 252,2342 613,2824c247,328 586,519 1019,575c111,14 410,12 533,-4zm-293,-6644c469,-110 732,-425 895,-1071c54,-213 115,-599 101,-635c-8,-23 -309,-166 -448,-214c-449,-154 -920,-146 -1253,22c-276,138 -455,355 -526,639c-30,121 -37,362 -14,499c35,214 108,368 240,507c141,149 286,227 498,268c106,20 395,12 507,-15z" id="svg_2"/>
  </g>
  <g id="svg_5"/>
 </g>
</svg>